<svg width="24" height="24" viewBox="0 0 24 24" fill="none" xmlns="http://www.w3.org/2000/svg">
<g clip-path="url(#clip0_227_7319)">
<path d="M12.0034 4.50114C12.2793 4.50137 12.5034 4.72514 12.5034 5.00114V11.5011H19.0034C19.2793 11.5014 19.5034 11.7251 19.5034 12.0011C19.5033 12.2771 19.2793 12.5009 19.0034 12.5011H12.5034V19.0011C12.5033 19.2771 12.2793 19.5009 12.0034 19.5011C11.7272 19.5011 11.5034 19.2773 11.5034 19.0011V12.5011H5.00336C4.72723 12.5011 4.50338 12.2773 4.50336 12.0011C4.50336 11.725 4.72721 11.5011 5.00336 11.5011H11.5034V5.00114C11.5034 4.725 11.7272 4.50114 12.0034 4.50114Z" fill="#0A0A0A"/>
</g>
<defs>
<clipPath id="clip0_227_7319">
<rect width="24" height="24" fill="white"/>
</clipPath>
</defs>
</svg>
