<svg width="24" height="24" viewBox="0 0 24 24" fill="none" xmlns="http://www.w3.org/2000/svg">
<g clip-path="url(#clip0_227_7288)">
<path d="M17.6498 5.64765C17.8451 5.45253 18.1616 5.45244 18.3568 5.64765C18.5517 5.84289 18.5519 6.15951 18.3568 6.35468L12.7104 12.0012L18.3568 17.6477C18.5517 17.8429 18.5519 18.1595 18.3568 18.3547C18.1617 18.5498 17.8451 18.5496 17.6498 18.3547L12.0033 12.7082L6.35683 18.3547C6.16168 18.5498 5.84509 18.5496 5.6498 18.3547C5.45454 18.1594 5.45454 17.8429 5.6498 17.6477L11.2963 12.0012L5.6498 6.35468C5.45454 6.15942 5.45454 5.84291 5.6498 5.64765C5.84508 5.45253 6.16162 5.45244 6.35683 5.64765L12.0033 11.2941L17.6498 5.64765Z" fill="#0A0A0A"/>
</g>
<defs>
<clipPath id="clip0_227_7288">
<rect width="24" height="24" fill="white"/>
</clipPath>
</defs>
</svg>
