<svg width="16" height="16" viewBox="0 0 16 16" fill="none" xmlns="http://www.w3.org/2000/svg">
<g clip-path="url(#clip0_226_2547)">
<path d="M14.0002 9.50015C14.2763 9.5003 14.5002 9.7241 14.5002 10.0002V12.6671C14.5001 13.1532 14.3068 13.6193 13.9631 13.963C13.6195 14.3067 13.1532 14.5 12.6672 14.5002H3.33325C2.84724 14.5001 2.38107 14.3066 2.03735 13.963C1.69365 13.6193 1.50037 13.1532 1.50024 12.6671V10.0002C1.50024 9.72401 1.7241 9.50015 2.00024 9.50015C2.27626 9.5003 2.50024 9.7241 2.50024 10.0002V12.6671C2.50037 12.888 2.58822 13.0998 2.74438 13.256C2.90057 13.4121 3.11246 13.5001 3.33325 13.5002H12.6672C12.888 13.5 13.1 13.4121 13.2561 13.256C13.4122 13.0998 13.5001 12.888 13.5002 12.6671V10.0002C13.5002 9.72401 13.7241 9.50015 14.0002 9.50015ZM8.00024 1.50015C8.27626 1.5003 8.50024 1.7241 8.50024 2.00015V8.79312L10.9797 6.31363C11.175 6.11843 11.4915 6.11839 11.6868 6.31363C11.8818 6.50889 11.8819 6.82546 11.6868 7.02066L8.35376 10.3537C8.15857 10.5489 7.84201 10.5487 7.64673 10.3537L4.31372 7.02066C4.11846 6.8254 4.11846 6.50889 4.31372 6.31363C4.50899 6.11843 4.82551 6.11839 5.02075 6.31363L7.50024 8.79312V2.00015C7.50024 1.72401 7.7241 1.50015 8.00024 1.50015Z" fill="#0A0A0A"/>
</g>
<defs>
<clipPath id="clip0_226_2547">
<rect width="16" height="16" fill="white"/>
</clipPath>
</defs>
</svg>
