<svg width="24" height="24" viewBox="0 0 24 24" fill="none" xmlns="http://www.w3.org/2000/svg">
<g clip-path="url(#clip0_227_7307)">
<path d="M12.0034 1.5003C12.5203 1.50039 13.0231 1.66073 13.4428 1.95635L13.6166 2.09112L13.6196 2.09307L20.6196 8.09307H20.6186C20.8952 8.32739 21.1183 8.61872 21.2709 8.94756C21.4239 9.27717 21.5033 9.63695 21.5034 10.0003V19.0003C21.5034 19.6632 21.2395 20.3 20.7709 20.7689C20.3022 21.2374 19.6661 21.5002 19.0034 21.5003H5.00336C4.34046 21.5003 3.70459 21.2375 3.23578 20.7689C2.76694 20.3 2.50336 19.6633 2.50336 19.0003V10.0003C2.5034 9.63695 2.58284 9.27717 2.73578 8.94756C2.88837 8.61904 3.11081 8.32724 3.38715 8.09307L10.3871 2.09307L10.3901 2.09112C10.8412 1.71007 11.4128 1.5003 12.0034 1.5003ZM12.0034 2.5003C11.6492 2.5003 11.3062 2.62631 11.0356 2.85479L4.03754 8.85284L4.03558 8.85479C3.8692 8.99541 3.73483 9.17092 3.64301 9.36846C3.55126 9.56619 3.5034 9.78233 3.50336 10.0003V19.0003C3.50336 19.3981 3.66151 19.7805 3.94281 20.0618C4.22408 20.3429 4.60568 20.5003 5.00336 20.5003H8.50336V13.0003C8.50357 12.6028 8.66169 12.2209 8.94281 11.9398C9.22405 11.6588 9.60583 11.5003 10.0034 11.5003H14.0034C14.4009 11.5004 14.7827 11.6587 15.0639 11.9398C15.345 12.2209 15.5031 12.6028 15.5034 13.0003V20.5003H19.0034C19.4009 20.5002 19.7827 20.3429 20.0639 20.0618C20.345 19.7806 20.5034 19.3979 20.5034 19.0003V10.0003C20.5033 9.78233 20.4555 9.56618 20.3637 9.36846C20.2719 9.17082 20.1376 8.99548 19.9711 8.85479L19.9692 8.85284L12.9711 2.85479L12.8666 2.77374C12.6149 2.59655 12.3133 2.50039 12.0034 2.5003ZM10.0034 12.5003C9.87104 12.5003 9.74355 12.5534 9.64984 12.6468C9.55626 12.7404 9.50357 12.868 9.50336 13.0003V20.5003H14.5034V13.0003C14.5031 12.868 14.4504 12.7404 14.3569 12.6468C14.2632 12.5533 14.1357 12.5004 14.0034 12.5003H10.0034Z" fill="#0A0A0A"/>
</g>
<defs>
<clipPath id="clip0_227_7307">
<rect width="24" height="24" fill="white"/>
</clipPath>
</defs>
</svg>
