<svg width="24" height="24" viewBox="0 0 24 24" fill="none" xmlns="http://www.w3.org/2000/svg">
<g clip-path="url(#clip0_227_7313)">
<path d="M9.00336 2.50114C9.27931 2.50137 9.50336 2.72514 9.50336 3.00114C9.50333 3.27713 9.2793 3.50092 9.00336 3.50114H5.00336C4.60562 3.50114 4.2241 3.65941 3.94281 3.9406C3.66151 4.2219 3.50336 4.60332 3.50336 5.00114V19.0011C3.50337 19.399 3.66152 19.7804 3.94281 20.0617C4.22409 20.3429 4.60564 20.5011 5.00336 20.5011H9.00336C9.27931 20.5014 9.50336 20.7251 9.50336 21.0011C9.50333 21.2771 9.2793 21.5009 9.00336 21.5011H5.00336C4.34042 21.5011 3.7046 21.2374 3.23578 20.7687C2.76695 20.2999 2.50337 19.6642 2.50336 19.0011V5.00114C2.50336 4.3381 2.76694 3.70241 3.23578 3.23357C3.7046 2.76484 4.3404 2.50114 5.00336 2.50114H9.00336ZM15.6498 6.64763C15.8451 6.45255 16.1617 6.45243 16.3569 6.64763L21.3569 11.6476C21.5518 11.8428 21.5519 12.1595 21.3569 12.3547L16.3569 17.3547C16.1617 17.5498 15.8451 17.5497 15.6498 17.3547C15.4546 17.1594 15.4546 16.8429 15.6498 16.6476L19.7963 12.5011H9.00336C8.72723 12.5011 8.50338 12.2773 8.50336 12.0011C8.50336 11.725 8.72721 11.5011 9.00336 11.5011H19.7963L15.6498 7.35466C15.4546 7.1594 15.4546 6.84289 15.6498 6.64763Z" fill="#0A0A0A"/>
</g>
<defs>
<clipPath id="clip0_227_7313">
<rect width="24" height="24" fill="white"/>
</clipPath>
</defs>
</svg>
