<svg width="24" height="24" viewBox="0 0 24 24" fill="none" xmlns="http://www.w3.org/2000/svg">
<g clip-path="url(#clip0_227_7327)">
<path d="M11.0033 2.50114C15.6976 2.50137 19.5033 6.30686 19.5033 11.0011C19.5033 13.1683 18.69 15.1443 17.3549 16.6457L21.3568 20.6476C21.5518 20.8428 21.5518 21.1595 21.3568 21.3547C21.1617 21.5498 20.8451 21.5497 20.6498 21.3547L16.6479 17.3527C15.1466 18.6878 13.1704 19.501 11.0033 19.5011C6.30892 19.5011 2.50335 15.6955 2.50333 11.0011C2.50333 6.30672 6.30891 2.50114 11.0033 2.50114ZM11.0033 3.50114C6.86119 3.50114 3.50333 6.85901 3.50333 11.0011C3.50335 15.1433 6.86121 18.5011 11.0033 18.5011C15.1453 18.5009 18.5033 15.1431 18.5033 11.0011C18.5033 6.85915 15.1453 3.50137 11.0033 3.50114Z" fill="#0A0A0A"/>
</g>
<defs>
<clipPath id="clip0_227_7327">
<rect width="24" height="24" fill="white"/>
</clipPath>
</defs>
</svg>
