<svg width="250" height="250" viewBox="0 0 250 250" fill="none" xmlns="http://www.w3.org/2000/svg">
<path d="M77.55 98.23C82.37 108.3 78.17 120.37 68.17 125.19C58.16 130.01 46.14 125.75 41.32 115.68C36.5 105.61 40.7 93.54 50.7 88.72C60.71 83.9 72.73 88.16 77.55 98.23Z" fill="black"/>
<path d="M74.08 97.1299C79.79 106.73 76.69 119.13 67.15 124.82C57.62 130.52 45.26 127.36 39.55 117.76C33.84 108.16 36.94 95.7599 46.48 90.0699C56.01 84.3699 68.37 87.5299 74.08 97.1299Z" fill="white"/>
<path d="M56.92 127.9C55.25 127.9 53.57 127.69 51.91 127.27C46.61 125.93 42.15 122.6 39.35 117.88C33.58 108.18 36.73 95.6099 46.36 89.8599C51.01 87.0799 56.46 86.2799 61.72 87.6099C67.02 88.9499 71.48 92.2799 74.28 96.9999C80.05 106.7 76.9 119.27 67.27 125.02C64.09 126.92 60.53 127.89 56.92 127.89V127.9ZM56.71 87.4699C53.18 87.4699 49.71 88.4199 46.61 90.2799C37.2 95.8999 34.13 108.18 39.77 117.64C42.51 122.24 46.87 125.5 52.04 126.81C57.17 128.11 62.5 127.33 67.04 124.62C76.45 119 79.52 106.72 73.88 97.2599C71.14 92.6599 66.78 89.3999 61.61 88.0899C59.99 87.6799 58.35 87.4799 56.72 87.4799L56.71 87.4699Z" fill="black"/>
<path d="M67.78 113.63C67.74 113.63 67.7 113.63 67.67 113.6L57.23 107.94C56.84 107.73 56.54 107.38 56.4 106.95L53.58 98.46C53.54 98.33 53.61 98.2 53.73 98.16C53.86 98.12 53.99 98.19 54.03 98.31L56.85 106.8C56.95 107.11 57.16 107.36 57.45 107.51L67.89 113.17C68.01 113.23 68.05 113.38 67.99 113.5C67.95 113.58 67.86 113.63 67.78 113.63Z" fill="black"/>
<path d="M49.61 93.0299C49.97 93.6399 49.78 94.4299 49.17 94.7999C48.56 95.1599 47.77 94.9599 47.41 94.3499C47.05 93.7399 47.24 92.9499 47.85 92.5799C48.46 92.2199 49.25 92.4199 49.61 93.0299Z" fill="black"/>
<path d="M43.41 98.5499C44.03 98.8999 44.25 99.6899 43.91 100.31C43.57 100.93 42.78 101.15 42.16 100.8C41.54 100.45 41.32 99.6599 41.66 99.0399C42 98.4199 42.79 98.1999 43.41 98.5499Z" fill="black"/>
<path d="M41.3571 108.845C42.0209 108.602 42.3606 107.863 42.1158 107.194C41.8709 106.525 41.1343 106.179 40.4704 106.422C39.8065 106.665 39.4669 107.404 39.7117 108.073C39.9565 108.743 40.6932 109.088 41.3571 108.845Z" fill="black"/>
<path d="M42.49 114.63C43.1 114.27 43.89 114.47 44.25 115.08C44.61 115.69 44.42 116.48 43.81 116.85C43.2 117.21 42.41 117.01 42.05 116.4C41.69 115.79 41.88 115 42.49 114.63Z" fill="black"/>
<path d="M48.14 120.73C48.48 120.11 49.27 119.89 49.89 120.24C50.51 120.59 50.73 121.38 50.39 122C50.05 122.62 49.26 122.84 48.64 122.49C48.02 122.14 47.8 121.35 48.14 120.73Z" fill="black"/>
<path d="M57.6873 124.626C58.3512 124.383 58.6909 123.644 58.446 122.975C58.2012 122.306 57.4645 121.96 56.8007 122.203C56.1368 122.446 55.7971 123.186 56.042 123.855C56.2868 124.524 57.0234 124.869 57.6873 124.626Z" fill="black"/>
<path d="M65.6293 122.335C66.2931 122.092 66.6328 121.353 66.388 120.684C66.1431 120.015 65.4065 119.669 64.7426 119.912C64.0788 120.155 63.7391 120.894 63.9839 121.563C64.2287 122.232 64.9654 122.578 65.6293 122.335Z" fill="black"/>
<path d="M70.35 116.19C69.73 115.84 69.51 115.05 69.85 114.43C70.19 113.81 70.98 113.59 71.6 113.94C72.22 114.29 72.44 115.08 72.1 115.7C71.76 116.32 70.97 116.54 70.35 116.19Z" fill="black"/>
<path d="M73.2491 108.347C73.913 108.105 74.2527 107.365 74.0079 106.696C73.763 106.027 73.0264 105.682 72.3625 105.925C71.6986 106.168 71.3589 106.907 71.6038 107.576C71.8486 108.245 72.5853 108.59 73.2491 108.347Z" fill="black"/>
<path d="M71.1401 100.26C70.5301 100.62 69.7401 100.42 69.3801 99.8099C69.0201 99.1999 69.2101 98.4099 69.8201 98.0399C70.4301 97.6799 71.2201 97.8799 71.5801 98.4899C71.9401 99.0999 71.7501 99.8899 71.1401 100.26Z" fill="black"/>
<path d="M65.6201 94.0199C65.2801 94.6399 64.4901 94.8599 63.8701 94.5099C63.2501 94.1599 63.0301 93.3699 63.3701 92.7499C63.7101 92.1299 64.5001 91.9099 65.1201 92.2599C65.7401 92.6099 65.9601 93.3999 65.6201 94.0199Z" fill="black"/>
<path d="M56.8823 92.6155C57.5461 92.3726 57.8858 91.6333 57.641 90.9642C57.3961 90.2952 56.6595 89.9497 55.9956 90.1927C55.3317 90.4356 54.9921 91.1749 55.2369 91.844C55.4817 92.5131 56.2184 92.8585 56.8823 92.6155Z" fill="black"/>
<path d="M128.39 57.95C128.33 56.56 127.21 55.42 125.82 55.32C124.94 55.26 124.15 55.61 123.6 56.2C123.46 56.35 123.27 56.43 123.06 56.43C122.65 56.43 122.32 56.1 122.32 55.69V55.55V49.96H116.73H116.59C116.18 49.96 115.85 50.29 115.85 50.7C115.85 51.11 115.93 51.1 116.08 51.24C116.67 51.78 117.02 52.58 116.96 53.46C116.87 54.85 115.73 55.96 114.33 56.03C112.74 56.1 111.44 54.84 111.44 53.27C111.44 51.7 111.78 51.75 112.32 51.25C112.47 51.11 112.55 50.92 112.55 50.71C112.55 50.3 112.22 49.97 111.81 49.97H111.67H106.08V64.22C106.08 65.31 106.96 66.19 108.05 66.19H122.3V60.6V60.46C122.3 60.05 122.63 59.72 123.04 59.72C123.45 59.72 123.44 59.8 123.58 59.95C124.08 60.49 124.8 60.83 125.6 60.83C127.17 60.83 128.43 59.52 128.36 57.94L128.39 57.95Z" fill="white"/>
<path d="M122.33 66.43H108.08C106.86 66.43 105.86 65.44 105.86 64.22V49.97C105.86 49.84 105.97 49.73 106.1 49.73H111.69C111.7 49.73 111.72 49.73 111.73 49.73H111.83C112.37 49.73 112.81 50.17 112.81 50.71C112.81 51.25 112.7 51.24 112.5 51.42C111.99 51.9 111.69 52.57 111.69 53.27C111.69 53.97 111.97 54.61 112.47 55.09C112.97 55.57 113.64 55.82 114.33 55.79C115.61 55.73 116.64 54.72 116.73 53.45C116.78 52.68 116.49 51.95 115.93 51.43C115.73 51.25 115.62 50.99 115.62 50.72C115.62 50.18 116.06 49.74 116.6 49.74H116.7C116.71 49.74 116.73 49.74 116.74 49.74H122.33C122.46 49.74 122.57 49.85 122.57 49.98V55.53C122.57 55.54 122.57 55.56 122.57 55.58V55.72C122.57 55.99 122.79 56.22 123.07 56.22C123.35 56.22 123.34 56.16 123.43 56.06C124.05 55.39 124.93 55.05 125.84 55.11C127.36 55.21 128.56 56.44 128.63 57.96C128.67 58.79 128.37 59.58 127.8 60.18C127.23 60.78 126.46 61.11 125.63 61.11C124.8 61.11 124 60.76 123.43 60.15C123.34 60.05 123.21 59.99 123.07 59.99C122.8 59.99 122.57 60.21 122.57 60.49V60.63C122.57 60.65 122.57 60.66 122.57 60.68V66.23C122.57 66.36 122.46 66.47 122.33 66.47V66.43ZM106.34 50.21V64.22C106.34 65.18 107.12 65.95 108.07 65.95H122.08V60.6C122.08 60.58 122.08 60.57 122.08 60.55V60.46C122.08 59.92 122.52 59.48 123.06 59.48C123.6 59.48 123.59 59.59 123.77 59.79C124.25 60.3 124.92 60.6 125.62 60.6C126.32 60.6 126.96 60.32 127.44 59.82C127.92 59.32 128.17 58.66 128.14 57.96C128.08 56.68 127.07 55.65 125.8 55.56C125.03 55.51 124.3 55.8 123.78 56.36C123.6 56.56 123.34 56.67 123.07 56.67C122.53 56.67 122.09 56.23 122.09 55.69V55.6C122.09 55.59 122.09 55.57 122.09 55.55V50.2H116.78C116.77 50.2 116.75 50.2 116.74 50.2H116.6C116.33 50.2 116.1 50.42 116.1 50.7C116.1 50.98 116.16 50.97 116.26 51.06C116.93 51.68 117.27 52.56 117.21 53.47C117.11 54.99 115.88 56.19 114.36 56.26C113.53 56.3 112.74 56 112.14 55.43C111.54 54.86 111.21 54.09 111.21 53.26C111.21 52.43 111.56 51.63 112.17 51.06C112.27 50.97 112.33 50.84 112.33 50.7C112.33 50.43 112.11 50.2 111.83 50.2H111.69C111.68 50.2 111.66 50.2 111.65 50.2H106.34V50.21Z" fill="black"/>
<path d="M132.64 49.97C132.32 49.89 132.09 49.6 132.09 49.26C132.09 48.92 132.17 48.86 132.32 48.72C132.91 48.18 133.26 47.38 133.2 46.5C133.11 45.11 131.97 44 130.57 43.93C128.98 43.86 127.68 45.12 127.68 46.69C127.68 48.26 128.02 48.21 128.56 48.71C128.71 48.85 128.79 49.04 128.79 49.25C128.79 49.59 128.55 49.88 128.24 49.96H122.33V55.55V55.69C122.33 56.1 122.66 56.43 123.07 56.43C123.48 56.43 123.47 56.35 123.61 56.2C124.15 55.61 124.95 55.26 125.83 55.32C127.22 55.41 128.33 56.55 128.4 57.95C128.47 59.54 127.21 60.84 125.64 60.84C124.07 60.84 124.12 60.5 123.62 59.96C123.48 59.81 123.29 59.73 123.08 59.73C122.67 59.73 122.34 60.06 122.34 60.47V60.61V66.2H136.59C137.68 66.2 138.56 65.32 138.56 64.23V49.98H132.65L132.64 49.97Z" fill="white"/>
<path d="M136.58 66.43H122.33C122.2 66.43 122.09 66.32 122.09 66.19V60.6C122.09 60.58 122.09 60.57 122.09 60.55V60.46C122.09 59.92 122.53 59.48 123.07 59.48C123.61 59.48 123.6 59.59 123.78 59.79C124.26 60.3 124.93 60.6 125.63 60.6C126.33 60.6 126.97 60.32 127.45 59.82C127.93 59.32 128.18 58.66 128.15 57.96C128.09 56.68 127.08 55.65 125.81 55.56C125.04 55.51 124.31 55.8 123.79 56.36C123.61 56.56 123.35 56.67 123.08 56.67C122.54 56.67 122.1 56.23 122.1 55.69V55.6C122.1 55.59 122.1 55.57 122.1 55.55V49.96C122.1 49.83 122.21 49.72 122.34 49.72H128.22C128.43 49.66 128.57 49.47 128.57 49.25C128.57 49.03 128.51 48.98 128.41 48.89C127.8 48.32 127.45 47.52 127.45 46.69C127.45 45.86 127.78 45.09 128.38 44.52C128.98 43.95 129.76 43.66 130.6 43.69C132.12 43.76 133.35 44.96 133.45 46.48C133.51 47.39 133.16 48.27 132.5 48.89C132.4 48.98 132.34 49.11 132.34 49.25C132.34 49.47 132.48 49.66 132.69 49.72H138.57C138.7 49.72 138.81 49.83 138.81 49.96V64.21C138.81 65.43 137.82 66.42 136.59 66.42L136.58 66.43ZM122.57 65.95H136.58C137.54 65.95 138.31 65.17 138.31 64.22V50.21H132.64C132.62 50.21 132.6 50.21 132.58 50.21C132.15 50.1 131.84 49.71 131.84 49.26C131.84 48.81 131.95 48.73 132.15 48.55C132.71 48.03 133 47.29 132.95 46.53C132.86 45.25 131.83 44.25 130.55 44.19C129.85 44.16 129.19 44.4 128.69 44.89C128.19 45.37 127.91 46.02 127.91 46.71C127.91 47.4 128.2 48.08 128.72 48.56C128.92 48.74 129.03 49 129.03 49.27C129.03 49.72 128.73 50.11 128.29 50.22C128.27 50.22 128.25 50.22 128.23 50.22H122.56V55.53C122.56 55.54 122.56 55.56 122.56 55.58V55.72C122.56 55.99 122.78 56.22 123.06 56.22C123.34 56.22 123.33 56.16 123.42 56.06C124.04 55.39 124.92 55.05 125.83 55.11C127.35 55.21 128.55 56.44 128.62 57.96C128.66 58.79 128.36 59.58 127.79 60.18C127.22 60.78 126.45 61.11 125.62 61.11C124.79 61.11 123.99 60.76 123.42 60.15C123.33 60.05 123.2 59.99 123.06 59.99C122.79 59.99 122.56 60.21 122.56 60.49V60.63C122.56 60.65 122.56 60.66 122.56 60.68V65.99L122.57 65.95Z" fill="black"/>
<path d="M136.58 33.74H122.33V39.6C122.27 39.94 121.97 40.2 121.61 40.2C121.25 40.2 121.21 40.12 121.07 39.97C120.53 39.38 119.73 39.03 118.85 39.09C117.46 39.18 116.35 40.32 116.28 41.72C116.21 43.31 117.47 44.61 119.04 44.61C120.61 44.61 120.56 44.27 121.06 43.73C121.2 43.58 121.39 43.5 121.6 43.5C121.96 43.5 122.26 43.76 122.32 44.1V49.96H128.23C128.55 49.88 128.78 49.59 128.78 49.25C128.78 48.91 128.7 48.85 128.55 48.71C128.01 48.21 127.67 47.49 127.67 46.69C127.67 45.12 128.98 43.86 130.56 43.93C131.95 43.99 133.09 45.11 133.19 46.5C133.25 47.38 132.9 48.17 132.31 48.72C132.16 48.86 132.08 49.05 132.08 49.26C132.08 49.6 132.32 49.89 132.63 49.97H138.54V35.72C138.54 34.63 137.66 33.75 136.57 33.75L136.58 33.74Z" fill="white"/>
<path d="M138.55 50.21H132.64C132.62 50.21 132.6 50.21 132.58 50.21C132.15 50.1 131.84 49.71 131.84 49.26C131.84 48.81 131.95 48.73 132.15 48.55C132.71 48.03 133 47.29 132.95 46.53C132.86 45.25 131.83 44.25 130.55 44.19C129.85 44.16 129.19 44.4 128.69 44.89C128.19 45.37 127.91 46.02 127.91 46.71C127.91 47.4 128.2 48.08 128.72 48.56C128.92 48.74 129.03 49 129.03 49.27C129.03 49.72 128.73 50.11 128.29 50.22C128.27 50.22 128.25 50.22 128.23 50.22H122.32C122.19 50.22 122.08 50.11 122.08 49.98V44.14C122.03 43.92 121.83 43.75 121.6 43.75C121.37 43.75 121.33 43.81 121.24 43.91C120.67 44.52 119.87 44.87 119.04 44.87C118.21 44.87 117.44 44.54 116.87 43.94C116.3 43.34 116 42.55 116.04 41.72C116.11 40.2 117.31 38.97 118.83 38.87C119.74 38.81 120.62 39.16 121.24 39.82C121.33 39.92 121.46 39.98 121.6 39.98C121.83 39.98 122.03 39.82 122.08 39.59V33.75C122.08 33.62 122.19 33.51 122.32 33.51H136.57C137.79 33.51 138.79 34.5 138.79 35.72V49.97C138.79 50.1 138.68 50.21 138.55 50.21ZM132.67 49.72H138.31V35.71C138.31 34.75 137.53 33.98 136.58 33.98H122.57V39.6C122.57 39.61 122.57 39.63 122.57 39.64C122.48 40.1 122.08 40.44 121.61 40.44C121.14 40.44 121.08 40.33 120.9 40.13C120.38 39.57 119.64 39.28 118.88 39.33C117.6 39.42 116.6 40.45 116.54 41.73C116.51 42.43 116.75 43.09 117.24 43.59C117.72 44.09 118.37 44.37 119.06 44.37C119.75 44.37 120.43 44.08 120.91 43.56C121.09 43.36 121.35 43.25 121.62 43.25C122.09 43.25 122.49 43.59 122.58 44.05C122.58 44.06 122.58 44.08 122.58 44.09V49.71H128.22C128.43 49.65 128.57 49.46 128.57 49.24C128.57 49.02 128.51 48.97 128.41 48.88C127.8 48.31 127.45 47.51 127.45 46.68C127.45 45.85 127.78 45.08 128.38 44.51C128.98 43.94 129.76 43.65 130.6 43.68C132.12 43.75 133.35 44.95 133.45 46.47C133.51 47.38 133.16 48.26 132.5 48.88C132.4 48.97 132.34 49.1 132.34 49.24C132.34 49.46 132.48 49.65 132.69 49.71L132.67 49.72Z" fill="black"/>
<path d="M118.85 39.1C119.73 39.04 120.52 39.39 121.07 39.98C121.21 40.13 121.4 40.21 121.61 40.21C121.97 40.21 122.27 39.95 122.33 39.61V33.75H108.08C106.99 33.75 106.11 34.63 106.11 35.72V49.97H111.7H111.84C112.25 49.97 112.58 50.3 112.58 50.71C112.58 51.12 112.5 51.11 112.35 51.25C111.81 51.75 111.47 52.47 111.47 53.27C111.47 54.84 112.78 56.1 114.36 56.03C115.75 55.97 116.89 54.85 116.99 53.46C117.05 52.58 116.7 51.79 116.11 51.24C115.96 51.1 115.88 50.91 115.88 50.7C115.88 50.29 116.21 49.96 116.62 49.96H116.76H122.35V44.1C122.29 43.76 121.99 43.5 121.63 43.5C121.27 43.5 121.23 43.58 121.09 43.73C120.59 44.27 119.87 44.61 119.07 44.61C117.5 44.61 116.24 43.3 116.31 41.72C116.37 40.33 117.49 39.19 118.88 39.09L118.85 39.1Z" fill="black"/>
<path d="M114.21 56.27C113.43 56.27 112.7 55.98 112.14 55.44C111.54 54.87 111.21 54.1 111.21 53.27C111.21 52.44 111.56 51.64 112.17 51.07C112.27 50.98 112.33 50.85 112.33 50.71C112.33 50.44 112.11 50.21 111.83 50.21H111.69C111.68 50.21 111.66 50.21 111.65 50.21H106.1C105.97 50.21 105.86 50.1 105.86 49.97V35.72C105.86 34.5 106.85 33.51 108.08 33.51H122.33C122.46 33.51 122.57 33.62 122.57 33.75V39.61C122.57 39.62 122.57 39.64 122.57 39.65C122.48 40.11 122.08 40.45 121.61 40.45C121.14 40.45 121.08 40.34 120.9 40.14C120.38 39.58 119.64 39.29 118.88 39.34C117.6 39.43 116.6 40.46 116.54 41.74C116.51 42.44 116.75 43.1 117.24 43.6C117.72 44.1 118.37 44.38 119.06 44.38C119.75 44.38 120.43 44.09 120.91 43.57C121.09 43.37 121.35 43.26 121.62 43.26C122.09 43.26 122.49 43.6 122.58 44.06C122.58 44.07 122.58 44.09 122.58 44.1V49.96C122.58 50.09 122.47 50.2 122.34 50.2H116.79C116.78 50.2 116.76 50.2 116.75 50.2H116.61C116.34 50.2 116.11 50.42 116.11 50.7C116.11 50.98 116.17 50.97 116.27 51.06C116.94 51.68 117.28 52.56 117.22 53.47C117.12 54.99 115.89 56.19 114.37 56.26C114.32 56.26 114.27 56.26 114.23 56.26L114.21 56.27ZM111.73 49.73H111.83C112.37 49.73 112.81 50.17 112.81 50.71C112.81 51.25 112.7 51.24 112.5 51.42C111.99 51.9 111.69 52.57 111.69 53.27C111.69 53.97 111.97 54.61 112.47 55.09C112.97 55.57 113.64 55.82 114.33 55.79C115.61 55.73 116.64 54.72 116.73 53.45C116.78 52.68 116.49 51.95 115.93 51.43C115.73 51.25 115.62 50.99 115.62 50.72C115.62 50.18 116.06 49.74 116.6 49.74H116.7C116.71 49.74 116.73 49.74 116.74 49.74H122.09V44.14C122.04 43.92 121.84 43.75 121.61 43.75C121.38 43.75 121.34 43.81 121.25 43.91C120.68 44.52 119.88 44.87 119.05 44.87C118.22 44.87 117.45 44.54 116.88 43.94C116.31 43.34 116.01 42.55 116.05 41.72C116.12 40.2 117.32 38.97 118.84 38.87C119.75 38.81 120.63 39.16 121.25 39.82C121.34 39.92 121.47 39.98 121.61 39.98C121.84 39.98 122.04 39.82 122.09 39.59V33.99H108.08C107.12 33.99 106.35 34.77 106.35 35.72V49.73H111.7C111.71 49.73 111.73 49.73 111.74 49.73H111.73Z" fill="black"/>
<path d="M164.15 163.19C164.15 163.19 159.78 136.57 157.2 129.18C155.66 124.75 137.5 117.05 137.5 117.05C137.5 117.05 136.46 114.47 134.22 113.87C131.98 113.26 124.6 112.84 124.6 112.84C124.6 112.84 116.03 113.26 113.79 113.87C111.55 114.48 110.51 117.05 110.51 117.05C110.51 117.05 92.35 124.75 90.81 129.18C88.23 136.58 83.86 163.19 83.86 163.19L96.8901 170.45C96.8901 170.45 95.8301 181.17 97.5901 182.28C99.0001 183.17 101.93 183.79 108.5 185.31C108.57 185.33 137.28 185.71 137.37 185.66C139.9 185.04 148.79 183.33 150.44 182.28C152.2 181.17 151.14 170.45 151.14 170.45L164.17 163.19H164.15Z" fill="white"/>
<path d="M136.51 185.91C135.11 185.91 131.64 185.87 122.92 185.76C121.45 185.74 108.54 185.58 108.44 185.55L106.8 185.17C101.29 183.9 98.78 183.32 97.46 182.48C95.7 181.36 96.4801 172.24 96.6401 170.58L83.7501 163.4C83.6601 163.35 83.61 163.25 83.63 163.15C83.67 162.88 88.0401 136.43 90.5901 129.09C92.1101 124.72 108.8 117.51 110.34 116.85C110.56 116.36 111.64 114.19 113.74 113.62C115.98 113.01 124.25 112.6 124.6 112.58C124.6 112.58 124.62 112.58 124.63 112.58C124.93 112.6 132.06 113.01 134.3 113.62C136.41 114.19 137.48 116.37 137.7 116.85C139.24 117.51 155.93 124.72 157.45 129.09C160 136.42 164.37 162.88 164.41 163.15C164.43 163.25 164.38 163.35 164.29 163.4L151.4 170.58C151.56 172.24 152.34 181.37 150.58 182.48C149.29 183.3 144.04 184.44 140.21 185.27C139.05 185.52 138.05 185.74 137.44 185.89C137.35 185.89 137.13 185.89 136.53 185.89L136.51 185.91ZM108.52 185.08C109.29 185.1 136.4 185.47 137.32 185.43C137.94 185.28 138.93 185.06 140.08 184.81C143.66 184.03 149.08 182.85 150.3 182.08C151.49 181.33 151.29 174.56 150.89 170.47C150.89 170.37 150.93 170.28 151.01 170.24L163.89 163.06C163.51 160.79 159.41 136.24 156.98 129.25C155.49 124.97 137.59 117.34 137.41 117.26C137.35 117.24 137.31 117.19 137.28 117.13C137.27 117.11 136.25 114.66 134.16 114.09C132.02 113.51 124.95 113.09 124.6 113.07C124.22 113.09 116 113.51 113.86 114.09C111.76 114.66 110.75 117.11 110.74 117.13C110.72 117.19 110.67 117.24 110.61 117.26C110.43 117.34 92.5301 124.97 91.0401 129.25C88.6101 136.24 84.5 160.79 84.13 163.06L97.01 170.24C97.09 170.29 97.14 170.38 97.13 170.47C96.72 174.56 96.5301 181.32 97.7201 182.08C98.9701 182.87 101.46 183.45 106.91 184.7L108.53 185.07L108.52 185.08Z" fill="black"/>
<path d="M98.66 168.87C98.64 168.87 98.63 168.87 98.61 168.87C98.48 168.84 98.4 168.72 98.42 168.59L103.39 144.25C103.42 144.12 103.54 144.04 103.67 144.06C103.8 144.09 103.88 144.21 103.86 144.34L98.89 168.68C98.87 168.79 98.77 168.87 98.65 168.87H98.66Z" fill="black"/>
<path d="M149.34 168.87C149.23 168.87 149.13 168.79 149.1 168.68L144.13 144.34C144.1 144.21 144.19 144.08 144.32 144.06C144.45 144.03 144.58 144.12 144.6 144.25L149.57 168.59C149.6 168.72 149.51 168.85 149.38 168.87C149.36 168.87 149.35 168.87 149.33 168.87H149.34Z" fill="black"/>
<path d="M115.28 116.25C115.28 116.25 112.03 117.1 112.11 120.92C112.19 124.74 114.2 171.82 108.48 185.32C108.48 185.32 119.54 190.02 137.35 186.26C137.35 186.26 132.98 170.85 132.01 157.22C131.04 143.59 135.57 120.87 133.13 117.94C130.69 115 115.27 116.25 115.27 116.25H115.28Z" fill="white"/>
<path d="M123.92 187.95C114.21 187.95 108.47 185.58 108.39 185.54C108.27 185.49 108.21 185.35 108.26 185.23C110.66 179.57 113.24 164.11 111.92 122.57C111.9 121.79 111.88 121.23 111.87 120.93C111.79 116.96 115.18 116.03 115.22 116.02C115.23 116.02 115.25 116.02 115.26 116.02C115.89 115.97 130.84 114.8 133.33 117.8C134.67 119.42 134.05 126.19 133.27 134.77C132.58 142.27 131.8 150.76 132.26 157.22C133.22 170.67 137.55 186.06 137.59 186.21C137.61 186.27 137.59 186.34 137.56 186.4C137.53 186.46 137.47 186.5 137.4 186.51C132.34 187.58 127.81 187.96 123.91 187.96L123.92 187.95ZM108.8 185.19C110.44 185.81 121.03 189.4 137.06 186.09C136.5 184.05 132.68 169.81 131.78 157.25C131.32 150.75 132.1 142.23 132.79 134.72C133.53 126.59 134.18 119.57 132.96 118.1C130.67 115.34 115.99 116.44 115.32 116.49C115.04 116.57 112.28 117.45 112.35 120.92C112.35 121.22 112.37 121.77 112.4 122.56C113.44 155.21 112.19 176.85 108.8 185.19Z" fill="black"/>
<path d="M116.84 105.56L115.86 117.04C114.71 117.58 113.93 118.56 113.47 119.9C113.06 121.1 113.24 122.42 113.93 123.49L121.12 134.73C121.96 136.04 123.87 136.05 124.72 134.74L132.07 123.45C133.14 121.8 132.96 119.6 131.57 118.22C131.17 117.83 130.7 117.48 130.12 117.24L129.61 105.56H116.85H116.84Z" fill="white"/>
<path d="M122.91 135.96C122.1 135.96 121.35 135.55 120.91 134.86L113.72 123.62C112.99 122.47 112.81 121.09 113.24 119.83C113.71 118.44 114.51 117.46 115.63 116.89L116.6 105.54C116.61 105.42 116.71 105.32 116.84 105.32H129.6C129.73 105.32 129.83 105.42 129.84 105.55L130.34 117.08C130.85 117.31 131.31 117.64 131.73 118.05C133.18 119.5 133.41 121.83 132.26 123.59L124.91 134.88C124.47 135.56 123.72 135.96 122.91 135.96ZM117.07 105.8L116.11 117.06C116.11 117.15 116.05 117.22 115.97 117.26C114.9 117.76 114.16 118.65 113.71 119.98C113.33 121.1 113.49 122.34 114.14 123.36L121.33 134.6C121.68 135.15 122.27 135.47 122.92 135.48C123.57 135.48 124.16 135.16 124.51 134.62L131.86 123.33C132.88 121.76 132.69 119.68 131.39 118.4C130.98 117.99 130.52 117.68 130.02 117.47C129.93 117.43 129.88 117.35 129.87 117.26L129.37 105.81H117.06L117.07 105.8Z" fill="black"/>
<path d="M131.37 99.9701V93.7301C131.37 93.7301 130.76 89.3401 125.79 89.3401C120.82 89.3401 115.85 92.6101 115.85 92.6101C115.87 93.4801 115.43 99.9801 115.43 99.9801C115.43 99.9801 114.52 99.5501 113.79 100.06C113.06 100.57 113.46 104.47 115.87 105.02L117.4 109.65C117.82 110.92 118.85 111.89 120.15 112.22L120.86 112.4C122.21 112.75 123.63 112.78 125 112.48L126.79 112.09C128.22 111.78 129.35 110.7 129.74 109.3L130.96 104.87C130.96 104.87 132.69 104.9 132.89 103.14C133.09 101.39 133.5 99.1201 131.37 99.9801V99.9701Z" fill="white"/>
<path d="M123.08 112.92C122.31 112.92 121.53 112.82 120.78 112.63L120.07 112.45C118.69 112.09 117.6 111.07 117.15 109.72L115.66 105.22C113.93 104.73 113.42 102.77 113.3 102.17C113.12 101.27 113.16 100.2 113.63 99.8701C114.18 99.4801 114.81 99.5601 115.18 99.6601C115.27 98.3501 115.6 93.3701 115.58 92.6301C115.58 92.5501 115.62 92.4701 115.69 92.4201C115.9 92.2801 120.78 89.1101 125.76 89.1101C130.74 89.1101 131.58 93.6601 131.59 93.7101C131.59 93.7201 131.59 93.7301 131.59 93.7401V99.6401C132.09 99.4901 132.49 99.5301 132.78 99.7501C133.45 100.26 133.29 101.57 133.14 102.84L133.1 103.16C132.93 104.58 131.82 105.03 131.11 105.09L129.94 109.35C129.53 110.85 128.33 111.98 126.81 112.32L125.02 112.71C124.38 112.85 123.72 112.92 123.07 112.92H123.08ZM114.63 100.05C114.41 100.05 114.16 100.1 113.93 100.26C113.75 100.38 113.6 101.1 113.79 102.07C113.9 102.62 114.37 104.43 115.92 104.78C116 104.8 116.07 104.86 116.09 104.94L117.62 109.57C118.02 110.77 118.98 111.67 120.2 111.99L120.91 112.17C122.22 112.51 123.61 112.54 124.94 112.25L126.73 111.86C128.07 111.57 129.13 110.56 129.5 109.24L130.72 104.81C130.75 104.7 130.85 104.63 130.96 104.63C131.04 104.63 132.48 104.63 132.65 103.12L132.69 102.79C132.81 101.76 132.97 100.48 132.52 100.14C132.32 99.9901 131.96 100.01 131.46 100.21C131.39 100.24 131.3 100.23 131.24 100.19C131.17 100.15 131.13 100.07 131.13 99.9901V93.7701C131.09 93.4501 130.39 89.6001 125.79 89.6001C121.19 89.6001 116.84 92.2901 116.09 92.7601C116.08 94.0101 115.69 99.7601 115.67 100.01C115.67 100.09 115.62 100.16 115.55 100.2C115.48 100.24 115.4 100.24 115.33 100.2C115.33 100.2 115.01 100.06 114.63 100.06V100.05Z" fill="black"/>
<path d="M118.23 92.0701C118.23 92.0701 115.02 96.3501 115.42 99.9701C115.42 99.9701 111.53 94.7601 116.63 90.3801C116.63 90.3801 112.89 86.4901 115.58 85.0401C118.27 83.5901 119.41 87.7501 121.76 87.0301C124.11 86.3101 126.28 86.2901 128.29 86.8801C130.3 87.4701 130.27 90.3301 131.08 90.9701C131.89 91.6101 135.09 93.3701 131.36 99.9701C131.36 99.9701 130.05 97.3901 129.9 94.8801C129.75 92.3701 130.66 91.4201 128.01 91.7801C125.36 92.1401 118.94 93.1601 118.23 92.0601V92.0701Z" fill="black"/>
<path d="M76.09 196.04C62.67 183.67 69.62 175.69 69.62 175.69C69.62 175.69 75.62 165.98 96.66 178.67C117.7 191.37 138.06 186.65 142.67 184.74C147.28 182.84 163.37 170.87 172.44 170.2C177.49 169.83 183.53 173.62 178.23 183.88C167.27 205.09 137.52 207.51 137.52 207.51C137.52 207.51 123.1 210.22 108.28 207.59C108.28 207.59 89.53 208.41 76.11 196.03L76.09 196.04Z" fill="black"/>
<path d="M131.41 198.42C131.34 198.42 131.28 198.39 131.23 198.34L130.53 197.55C130.49 197.5 130.46 197.43 130.47 197.37C130.48 197.31 130.51 197.24 130.56 197.2L152.75 180.08C152.86 180 153.01 180.02 153.09 180.12C153.17 180.23 153.15 180.38 153.05 180.46L131.07 197.42L131.6 198.02C131.69 198.12 131.68 198.27 131.58 198.36C131.53 198.4 131.48 198.42 131.42 198.42H131.41Z" fill="white"/>
<path d="M111.22 197.63C111.2 197.63 111.19 197.63 111.17 197.63C111.04 197.6 110.96 197.48 110.98 197.35L111.29 195.84C110.46 195.18 105.22 191.02 96.8 184.83C87.65 178.1 85.66 176.73 85.64 176.72C85.53 176.65 85.5 176.5 85.58 176.39C85.65 176.28 85.8 176.25 85.91 176.33C85.93 176.34 87.93 177.72 97.08 184.45C106.24 191.18 111.64 195.52 111.7 195.56C111.77 195.62 111.8 195.71 111.78 195.8L111.44 197.45C111.42 197.56 111.32 197.64 111.2 197.64L111.22 197.63Z" fill="white"/>
<path d="M131.29 199.48C131.29 199.48 119.19 204.3 114.3 204.66C109.41 205.02 100.82 207.28 99.83 207.69C98.85 208.1 99.14 210.17 100.52 210.66C100.52 210.66 100.13 212.42 101.4 213.01C101.4 213.01 101.3 214.82 103.07 215.04C103.07 215.04 102.52 216.01 104.81 216.22C107.1 216.43 111.65 215.69 113.77 214.78C115.88 213.87 123.76 208.41 123.76 208.41L134.83 205.02L131.3 199.48H131.29Z" fill="white"/>
<path d="M105.68 216.5C105.35 216.5 105.05 216.49 104.78 216.46C103.73 216.36 103.09 216.09 102.86 215.65C102.78 215.5 102.76 215.35 102.77 215.23C101.52 214.94 101.17 213.84 101.15 213.15C100.12 212.57 100.17 211.3 100.24 210.8C99.42 210.41 99.02 209.52 99 208.81C98.98 208.16 99.25 207.66 99.73 207.46C100.66 207.07 109.26 204.78 114.27 204.41C119.07 204.06 131.07 199.3 131.19 199.25C131.3 199.21 131.42 199.25 131.48 199.34L135.01 204.88C135.05 204.94 135.06 205.02 135.03 205.09C135 205.16 134.95 205.21 134.87 205.24L123.84 208.62C123.22 209.05 115.91 214.1 113.84 214.99C111.92 215.81 108.13 216.48 105.67 216.48L105.68 216.5ZM131.19 199.78C129.59 200.41 118.91 204.56 114.31 204.9C109.34 205.27 100.84 207.53 99.92 207.91C99.64 208.03 99.48 208.36 99.49 208.8C99.51 209.4 99.86 210.17 100.59 210.43C100.7 210.47 100.77 210.59 100.74 210.71C100.73 210.77 100.41 212.29 101.49 212.79C101.58 212.83 101.63 212.92 101.63 213.02C101.63 213.08 101.57 214.61 103.09 214.8C103.17 214.81 103.24 214.86 103.27 214.93C103.31 215 103.3 215.09 103.27 215.16C103.27 215.17 103.2 215.3 103.28 215.44C103.37 215.6 103.68 215.88 104.82 215.99C107.04 216.19 111.58 215.46 113.66 214.57C115.73 213.68 123.53 208.28 123.61 208.22C123.63 208.21 123.65 208.19 123.68 208.19L134.44 204.89L131.19 199.78Z" fill="black"/>
<path d="M101.5 210.38C101.39 210.38 101.29 210.3 101.26 210.19C101.23 210.06 101.32 209.93 101.45 209.91L103.07 209.59C103.2 209.56 103.33 209.65 103.35 209.78C103.38 209.91 103.29 210.04 103.16 210.06L101.54 210.38C101.52 210.38 101.51 210.38 101.49 210.38H101.5Z" fill="black"/>
<path d="M110.34 199.48C110.34 199.48 122.44 204.3 127.33 204.66C132.22 205.02 140.81 207.28 141.8 207.69C142.78 208.1 142.49 210.17 141.11 210.66C141.11 210.66 141.5 212.42 140.23 213.01C140.23 213.01 140.33 214.82 138.56 215.04C138.56 215.04 139.11 216.01 136.82 216.22C134.53 216.43 129.98 215.69 127.86 214.78C125.75 213.87 117.87 208.41 117.87 208.41L106.8 205.02L110.33 199.48H110.34Z" fill="white"/>
<path d="M135.95 216.5C133.49 216.5 129.69 215.83 127.78 215.01C125.71 214.12 118.4 209.06 117.78 208.64L106.75 205.26C106.68 205.24 106.62 205.18 106.59 205.11C106.56 205.04 106.57 204.96 106.61 204.9L110.14 199.36C110.2 199.26 110.32 199.22 110.43 199.27C110.55 199.32 122.55 204.08 127.35 204.43C132.36 204.8 140.96 207.09 141.89 207.48C142.36 207.68 142.63 208.18 142.62 208.83C142.6 209.54 142.2 210.43 141.38 210.82C141.45 211.32 141.5 212.58 140.47 213.17C140.45 213.86 140.1 214.96 138.85 215.25C138.85 215.38 138.84 215.53 138.76 215.67C138.53 216.11 137.88 216.38 136.84 216.48C136.57 216.5 136.27 216.52 135.94 216.52L135.95 216.5ZM107.18 204.89L117.94 208.19C117.96 208.19 117.99 208.21 118.01 208.22C118.09 208.27 125.89 213.68 127.96 214.57C130.04 215.46 134.58 216.19 136.8 215.99C137.99 215.88 138.27 215.57 138.34 215.44C138.41 215.3 138.34 215.17 138.34 215.17C138.3 215.1 138.3 215.02 138.34 214.94C138.38 214.87 138.44 214.82 138.52 214.81C140.05 214.61 139.98 213.09 139.98 213.03C139.98 212.93 140.03 212.84 140.12 212.8C141.21 212.3 140.87 210.74 140.87 210.72C140.84 210.6 140.91 210.48 141.02 210.44C141.76 210.18 142.11 209.41 142.12 208.81C142.13 208.37 141.97 208.03 141.69 207.92C140.77 207.54 132.26 205.27 127.3 204.91C122.7 204.57 112.02 200.42 110.42 199.79L107.17 204.9L107.18 204.89Z" fill="black"/>
<path d="M140.13 210.38C140.11 210.38 140.1 210.38 140.08 210.38L138.46 210.06C138.33 210.03 138.24 209.91 138.27 209.78C138.3 209.65 138.42 209.57 138.55 209.59L140.17 209.91C140.3 209.94 140.39 210.06 140.36 210.19C140.34 210.3 140.24 210.38 140.12 210.38H140.13Z" fill="black"/>
<path d="M71.4101 159.96L92.1101 164.88C96.68 165.97 99.55 170.49 98.5801 175.09C97.75 179.04 93.3601 181.09 89.8001 179.18L70.7101 168.94C68.7401 167.88 66.3801 167.84 64.3701 168.82L54.8501 173.47C54.8501 173.47 54.7401 172 56.2501 170.47C57.7601 168.94 60.8201 167.67 60.8201 167.67C60.8201 167.67 52.1001 170.58 48.8701 166.85C48.8701 166.85 49.5801 165.47 52.0401 165.48L48.8701 163.33C48.8701 163.33 49.5901 161.1 52.0001 161.9C54.4101 162.7 59.8301 161.67 59.8301 161.67C59.8301 161.67 54.6901 160.12 55.6701 155.14C56.6401 150.16 61.0801 150.89 61.0801 150.89L61.1101 151.3C61.1901 152.43 60.7701 153.52 60.0701 154.41C59.8201 154.72 59.6801 155.22 59.8401 156.01C60.2801 158.22 61.1201 159 62.7501 158.62C65.0001 158.09 64.5801 156.53 63.8601 155.34C63.0901 154.05 62.5701 152.62 62.3701 151.13L62.3401 150.92C62.3401 150.92 64.9801 149.03 66.8901 153.89C67.4201 155.25 67.8201 156.28 68.1101 157.06C68.6601 158.52 69.9001 159.61 71.4201 159.97L71.4101 159.96Z" fill="white"/>
<path d="M92.65 180.14C91.63 180.14 90.61 179.89 89.68 179.39L70.59 169.15C68.69 168.13 66.41 168.09 64.47 169.03L54.95 173.68C54.88 173.71 54.79 173.71 54.72 173.68C54.65 173.64 54.61 173.57 54.6 173.49C54.6 173.43 54.5 171.89 56.07 170.3C56.74 169.62 57.69 169 58.56 168.51C55.69 169.12 50.95 169.62 48.68 167C48.62 166.93 48.6 166.82 48.65 166.73C48.68 166.67 49.31 165.49 51.31 165.27L48.73 163.52C48.64 163.46 48.6 163.35 48.64 163.25C48.65 163.21 48.99 162.21 49.93 161.73C50.54 161.42 51.26 161.4 52.07 161.66C53.84 162.25 57.36 161.81 58.95 161.56C57.5 160.86 54.66 158.97 55.42 155.08C56.43 149.94 61.06 150.63 61.1 150.64C61.21 150.66 61.29 150.75 61.3 150.86L61.33 151.27C61.41 152.41 61.03 153.54 60.23 154.55C59.99 154.86 59.93 155.33 60.05 155.95C60.29 157.18 60.65 157.9 61.16 158.23C61.53 158.47 62.03 158.52 62.67 158.36C63.42 158.18 63.9 157.88 64.08 157.45C64.34 156.84 63.98 156.02 63.64 155.45C62.84 154.11 62.32 152.67 62.11 151.15L62.08 150.94C62.07 150.85 62.11 150.76 62.18 150.71C62.22 150.68 63.1 150.07 64.25 150.41C65.39 150.75 66.34 151.89 67.09 153.8C67.57 155.03 67.98 156.09 68.31 156.97C68.84 158.36 70.01 159.39 71.45 159.73L92.15 164.65C96.88 165.77 99.8 170.38 98.8 175.14C98.39 177.1 97.11 178.71 95.3 179.55C94.45 179.95 93.54 180.14 92.64 180.14H92.65ZM67.42 167.86C68.59 167.86 69.76 168.14 70.82 168.71L89.91 178.95C91.54 179.82 93.43 179.88 95.11 179.1C96.79 178.32 97.96 176.84 98.34 175.03C99.29 170.53 96.52 166.17 92.05 165.11L71.35 160.19C69.75 159.81 68.45 158.67 67.87 157.13C67.54 156.26 67.13 155.19 66.65 153.97C65.97 152.24 65.1 151.17 64.13 150.87C63.42 150.66 62.83 150.9 62.59 151.03V151.09C62.8 152.54 63.29 153.92 64.06 155.21C64.65 156.19 64.81 157.01 64.54 157.65C64.3 158.23 63.71 158.63 62.8 158.84C62.03 159.02 61.41 158.96 60.92 158.64C60.29 158.23 59.87 157.41 59.59 156.05C59.44 155.29 59.53 154.68 59.86 154.26C60.58 153.35 60.92 152.33 60.85 151.32V151.1C60 151.03 56.71 151.01 55.89 155.18C54.97 159.89 59.69 161.37 59.89 161.43C60 161.46 60.07 161.56 60.06 161.67C60.06 161.78 59.97 161.87 59.86 161.89C59.64 161.93 54.35 162.92 51.91 162.11C51.23 161.88 50.63 161.9 50.14 162.15C49.58 162.44 49.28 162.96 49.15 163.23L52.16 165.27C52.25 165.33 52.29 165.44 52.25 165.54C52.22 165.64 52.13 165.71 52.02 165.71C52.01 165.71 52 165.71 51.99 165.71C50.17 165.71 49.4 166.49 49.15 166.82C52.34 170.19 60.64 167.47 60.73 167.44C60.85 167.4 60.99 167.46 61.03 167.58C61.08 167.7 61.02 167.84 60.9 167.89C60.87 167.9 57.86 169.16 56.41 170.64C55.44 171.62 55.18 172.57 55.1 173.08L64.25 168.61C65.24 168.12 66.33 167.88 67.41 167.88L67.42 167.86Z" fill="black"/>
<path d="M176.6 159.96L155.9 164.88C151.33 165.97 148.46 170.49 149.43 175.09C150.26 179.04 154.65 181.09 158.21 179.18L177.3 168.94C179.27 167.88 181.63 167.84 183.64 168.82L193.16 173.47C193.16 173.47 193.27 172 191.76 170.47C190.25 168.94 187.19 167.67 187.19 167.67C187.19 167.67 195.91 170.58 199.14 166.85C199.14 166.85 198.43 165.47 195.97 165.48L199.14 163.33C199.14 163.33 198.42 161.1 196.01 161.9C193.6 162.7 188.18 161.67 188.18 161.67C188.18 161.67 193.32 160.12 192.34 155.14C191.37 150.16 186.93 150.89 186.93 150.89L186.9 151.3C186.82 152.43 187.24 153.52 187.94 154.41C188.19 154.72 188.33 155.22 188.17 156.01C187.73 158.22 186.89 159 185.26 158.62C183.01 158.09 183.43 156.53 184.15 155.34C184.93 154.05 185.44 152.62 185.64 151.13L185.67 150.92C185.67 150.92 183.03 149.03 181.12 153.89C180.59 155.25 180.19 156.28 179.9 157.06C179.35 158.52 178.11 159.61 176.59 159.97L176.6 159.96Z" fill="white"/>
<path d="M155.36 180.14C154.46 180.14 153.55 179.94 152.7 179.55C150.89 178.71 149.61 177.1 149.2 175.14C148.2 170.38 151.12 165.78 155.85 164.65L176.55 159.73C177.99 159.39 179.17 158.35 179.69 156.97C180.03 156.08 180.44 155.02 180.91 153.8C181.66 151.89 182.61 150.75 183.75 150.41C184.9 150.07 185.78 150.69 185.82 150.71C185.89 150.76 185.93 150.85 185.92 150.94L185.89 151.15C185.68 152.67 185.17 154.11 184.36 155.45C184.01 156.03 183.66 156.84 183.92 157.45C184.1 157.88 184.57 158.19 185.33 158.36C185.97 158.51 186.46 158.47 186.84 158.23C187.36 157.9 187.71 157.17 187.95 155.95C188.07 155.33 188.01 154.86 187.77 154.55C186.98 153.54 186.6 152.41 186.67 151.27L186.7 150.86C186.7 150.75 186.79 150.66 186.9 150.64C186.95 150.64 191.57 149.93 192.58 155.08C193.34 158.96 190.5 160.86 189.05 161.56C190.65 161.81 194.16 162.25 195.93 161.66C196.74 161.39 197.46 161.41 198.07 161.73C199.02 162.21 199.35 163.21 199.36 163.25C199.39 163.35 199.36 163.46 199.27 163.52L196.69 165.27C198.69 165.5 199.32 166.68 199.35 166.73C199.39 166.82 199.38 166.92 199.32 167C197.05 169.62 192.31 169.12 189.44 168.51C190.31 169 191.26 169.62 191.93 170.3C193.5 171.89 193.4 173.43 193.4 173.49C193.4 173.57 193.35 173.64 193.28 173.68C193.21 173.72 193.13 173.72 193.05 173.68L183.53 169.03C181.6 168.08 179.31 168.13 177.41 169.15L158.32 179.39C157.38 179.89 156.37 180.14 155.35 180.14H155.36ZM176.66 160.19L155.96 165.11C151.49 166.17 148.72 170.53 149.67 175.03C150.05 176.84 151.23 178.32 152.91 179.1C154.58 179.88 156.48 179.83 158.11 178.95L177.2 168.71C179.23 167.62 181.68 167.57 183.76 168.59L192.91 173.06C192.84 172.55 192.57 171.6 191.61 170.62C190.15 169.14 187.15 167.89 187.12 167.87C187 167.82 186.94 167.69 186.99 167.56C187.04 167.44 187.17 167.37 187.29 167.42C187.37 167.45 195.68 170.17 198.87 166.8C198.63 166.48 197.83 165.69 196 165.69C195.89 165.69 195.8 165.62 195.77 165.52C195.74 165.42 195.77 165.31 195.86 165.25L198.87 163.21C198.75 162.94 198.44 162.41 197.88 162.13C197.39 161.88 196.79 161.87 196.11 162.09C193.67 162.9 188.39 161.91 188.16 161.87C188.05 161.85 187.97 161.76 187.96 161.65C187.96 161.54 188.02 161.44 188.13 161.41C188.33 161.35 193.05 159.86 192.13 155.16C191.31 150.99 188.02 151.01 187.18 151.08V151.3C187.1 152.31 187.44 153.33 188.16 154.24C188.49 154.66 188.59 155.27 188.43 156.03C188.16 157.39 187.74 158.22 187.1 158.62C186.61 158.94 186 159 185.22 158.82C184.31 158.61 183.72 158.2 183.48 157.63C183.21 156.99 183.37 156.17 183.96 155.19C184.73 153.91 185.22 152.52 185.42 151.07V151.01C185.18 150.88 184.6 150.64 183.89 150.85C182.92 151.14 182.05 152.21 181.37 153.95C180.89 155.17 180.48 156.23 180.15 157.11C179.57 158.65 178.27 159.79 176.67 160.17L176.66 160.19Z" fill="black"/>
<path d="M205.97 122.45H212.34C212.87 122.45 213.3 122.02 213.3 121.49V87.04C213.3 86.45 212.82 85.97 212.23 85.97H196.09L205.97 122.44V122.45Z" fill="white"/>
<path d="M212.34 122.7H205.97C205.84 122.7 205.73 122.59 205.73 122.46C205.73 122.33 205.84 122.22 205.97 122.22H212.34C212.73 122.22 213.06 121.9 213.06 121.5V87.05C213.06 86.6 212.69 86.23 212.24 86.23H196.1C195.97 86.23 195.86 86.12 195.86 85.99C195.86 85.86 195.97 85.75 196.1 85.75H212.24C212.96 85.75 213.55 86.34 213.55 87.06V121.51C213.55 122.17 213.01 122.71 212.35 122.71L212.34 122.7Z" fill="black"/>
<path d="M205.77 124.02C205.7 124.36 205.4 124.61 205.05 124.61H167.82C167.36 124.61 167.01 124.19 167.1 123.73L174.5 86.56C174.57 86.22 174.87 85.97 175.22 85.97H212.45C212.91 85.97 213.26 86.39 213.17 86.85L205.77 124.02Z" fill="white"/>
<path d="M205.04 124.85H167.81C167.52 124.85 167.24 124.72 167.06 124.49C166.87 124.26 166.8 123.97 166.86 123.68L174.26 86.51C174.35 86.05 174.75 85.72 175.22 85.72H212.45C212.74 85.72 213.02 85.85 213.2 86.08C213.38 86.31 213.46 86.6 213.4 86.89L206 124.06C205.91 124.52 205.51 124.85 205.04 124.85ZM175.22 86.21C174.98 86.21 174.78 86.38 174.73 86.61L167.33 123.78C167.3 123.93 167.33 124.08 167.43 124.19C167.52 124.3 167.66 124.37 167.81 124.37H205.04C205.28 124.37 205.48 124.2 205.53 123.97L212.93 86.8C212.96 86.65 212.93 86.5 212.83 86.39C212.74 86.27 212.6 86.21 212.45 86.21H175.22Z" fill="black"/>
<path d="M177.22 109.92H172.9C172.83 109.92 172.76 109.89 172.71 109.83C172.66 109.77 172.65 109.7 172.66 109.63L173.44 105.54C173.46 105.43 173.56 105.34 173.68 105.34H178C178.07 105.34 178.14 105.37 178.19 105.43C178.24 105.49 178.25 105.56 178.24 105.63L177.46 109.72C177.44 109.83 177.34 109.92 177.22 109.92ZM173.19 109.43H177.02L177.71 105.82H173.88L173.19 109.43Z" fill="black"/>
<path d="M177.76 109.68L178.54 105.58H182.85L182.07 109.68H177.76Z" fill="white"/>
<path d="M186.93 109.92H182.61C182.54 109.92 182.47 109.89 182.42 109.83C182.37 109.77 182.36 109.7 182.37 109.63L183.15 105.54C183.17 105.43 183.27 105.34 183.39 105.34H187.71C187.78 105.34 187.85 105.37 187.9 105.43C187.95 105.49 187.96 105.56 187.95 105.63L187.17 109.72C187.15 109.83 187.05 109.92 186.93 109.92ZM182.9 109.43H186.73L187.42 105.82H183.59L182.9 109.43Z" fill="black"/>
<path d="M187.47 109.68L188.25 105.58H192.56L191.78 109.68H187.47Z" fill="white"/>
<path d="M196.64 109.92H192.32C192.25 109.92 192.18 109.89 192.13 109.83C192.08 109.77 192.07 109.7 192.08 109.63L192.86 105.54C192.88 105.43 192.98 105.34 193.1 105.34H197.42C197.49 105.34 197.56 105.37 197.61 105.43C197.66 105.49 197.67 105.56 197.66 105.63L196.88 109.72C196.86 109.83 196.76 109.92 196.64 109.92ZM192.61 109.43H196.44L197.13 105.82H193.3L192.61 109.43Z" fill="black"/>
<path d="M197.18 109.68L197.96 105.58H202.27L201.5 109.68H197.18Z" fill="white"/>
<path d="M206.35 109.92H202.03C201.96 109.92 201.89 109.89 201.84 109.83C201.79 109.77 201.78 109.7 201.79 109.63L202.57 105.54C202.59 105.43 202.69 105.34 202.81 105.34H207.13C207.2 105.34 207.27 105.37 207.32 105.43C207.37 105.49 207.38 105.56 207.37 105.63L206.59 109.72C206.57 109.83 206.47 109.92 206.35 109.92ZM202.33 109.43H206.16L206.85 105.82H203.02L202.33 109.43Z" fill="black"/>
<path d="M172.04 114.25L172.82 110.16H177.13L176.36 114.25H172.04Z" fill="white"/>
<path d="M181.21 114.49H176.89C176.82 114.49 176.75 114.46 176.7 114.4C176.65 114.34 176.64 114.27 176.65 114.2L177.43 110.11C177.45 110 177.55 109.91 177.67 109.91H181.99C182.06 109.91 182.13 109.94 182.18 110C182.23 110.06 182.24 110.13 182.23 110.2L181.45 114.29C181.43 114.4 181.33 114.49 181.21 114.49ZM177.19 114.01H181.02L181.71 110.4H177.88L177.19 114.01Z" fill="black"/>
<path d="M181.75 114.25L182.53 110.16H186.85L186.07 114.25H181.75Z" fill="white"/>
<path d="M190.92 114.49H186.6C186.53 114.49 186.46 114.46 186.41 114.4C186.36 114.34 186.35 114.27 186.36 114.2L187.14 110.11C187.16 110 187.26 109.91 187.38 109.91H191.7C191.77 109.91 191.84 109.94 191.89 110C191.94 110.06 191.95 110.13 191.94 110.2L191.16 114.29C191.14 114.4 191.04 114.49 190.92 114.49ZM186.9 114.01H190.73L191.42 110.4H187.59L186.9 114.01Z" fill="black"/>
<path d="M191.46 114.25L192.24 110.16H196.56L195.78 114.25H191.46Z" fill="white"/>
<path d="M200.63 114.49H196.31C196.24 114.49 196.17 114.46 196.12 114.4C196.07 114.34 196.06 114.27 196.07 114.2L196.85 110.11C196.87 110 196.97 109.91 197.09 109.91H201.41C201.48 109.91 201.55 109.94 201.6 110C201.65 110.06 201.66 110.13 201.65 110.2L200.87 114.29C200.85 114.4 200.75 114.49 200.63 114.49ZM196.61 114.01H200.44L201.13 110.4H197.3L196.61 114.01Z" fill="black"/>
<path d="M201.17 114.25L201.95 110.16H206.27L205.49 114.25H201.17Z" fill="white"/>
<path d="M178.94 100.77H174.62C174.55 100.77 174.48 100.74 174.43 100.68C174.38 100.62 174.37 100.55 174.38 100.48L175.16 96.3899C175.18 96.2799 175.28 96.1899 175.4 96.1899H179.72C179.79 96.1899 179.86 96.2199 179.91 96.2799C179.96 96.3399 179.97 96.4099 179.96 96.4799L179.18 100.57C179.16 100.68 179.06 100.77 178.94 100.77ZM174.92 100.29H178.75L179.44 96.6799H175.61L174.92 100.29Z" fill="black"/>
<path d="M179.49 100.52L180.27 96.4299H184.58L183.8 100.52H179.49Z" fill="white"/>
<path d="M188.66 100.77H184.34C184.27 100.77 184.2 100.74 184.15 100.68C184.1 100.62 184.09 100.55 184.1 100.48L184.88 96.3899C184.9 96.2799 185 96.1899 185.12 96.1899H189.44C189.51 96.1899 189.58 96.2199 189.63 96.2799C189.68 96.3399 189.69 96.4099 189.68 96.4799L188.9 100.57C188.88 100.68 188.78 100.77 188.66 100.77ZM184.63 100.29H188.46L189.15 96.6799H185.32L184.63 100.29Z" fill="black"/>
<path d="M189.2 100.53L189.97 96.4299H194.29L193.51 100.53H189.2Z" fill="white"/>
<path d="M198.37 100.77H194.05C193.98 100.77 193.91 100.74 193.86 100.68C193.81 100.62 193.8 100.55 193.81 100.48L194.59 96.3899C194.61 96.2799 194.71 96.1899 194.83 96.1899H199.15C199.22 96.1899 199.29 96.2199 199.34 96.2799C199.39 96.3399 199.4 96.4099 199.39 96.4799L198.61 100.57C198.59 100.68 198.49 100.77 198.37 100.77ZM194.34 100.29H198.17L198.86 96.6799H195.03L194.34 100.29Z" fill="black"/>
<path d="M198.91 100.53L199.69 96.4299H204L203.22 100.53H198.91Z" fill="white"/>
<path d="M208.08 100.77H203.76C203.69 100.77 203.62 100.74 203.57 100.68C203.52 100.62 203.51 100.55 203.52 100.48L204.3 96.3899C204.32 96.2799 204.42 96.1899 204.54 96.1899H208.86C208.93 96.1899 209 96.2199 209.05 96.2799C209.1 96.3399 209.11 96.4099 209.1 96.4799L208.32 100.57C208.3 100.68 208.2 100.77 208.08 100.77ZM204.05 100.29H207.88L208.57 96.6799H204.74L204.05 100.29Z" fill="black"/>
<path d="M173.77 105.1L174.54 101.01H178.86L178.08 105.1H173.77Z" fill="white"/>
<path d="M178.62 105.1L179.4 101.01H183.72L182.94 105.1H178.62Z" fill="white"/>
<path d="M183.48 105.1L184.26 101.01H188.57L187.79 105.1H183.48Z" fill="white"/>
<path d="M192.65 105.34H188.33C188.26 105.34 188.19 105.31 188.14 105.25C188.09 105.19 188.08 105.12 188.09 105.05L188.87 100.96C188.89 100.85 188.99 100.76 189.11 100.76H193.43C193.5 100.76 193.57 100.79 193.62 100.85C193.67 100.91 193.68 100.98 193.67 101.05L192.89 105.14C192.87 105.25 192.77 105.34 192.65 105.34ZM188.62 104.86H192.45L193.14 101.25H189.31L188.62 104.86Z" fill="black"/>
<path d="M193.19 105.1L193.97 101.01H198.28L197.5 105.1H193.19Z" fill="white"/>
<path d="M202.84 105.1L203.62 101.01H207.94L207.16 105.1H202.84Z" fill="white"/>
<path d="M202.36 105.34H198.04C197.97 105.34 197.9 105.31 197.85 105.25C197.8 105.19 197.79 105.12 197.8 105.05L198.58 100.96C198.6 100.85 198.7 100.76 198.82 100.76H203.14C203.21 100.76 203.28 100.79 203.33 100.85C203.38 100.91 203.39 100.98 203.38 101.05L202.6 105.14C202.58 105.25 202.48 105.34 202.36 105.34ZM198.33 104.86H202.16L202.85 101.25H199.02L198.33 104.86Z" fill="black"/>
<path d="M182.35 86.1399C182.22 86.1399 182.11 86.0299 182.11 85.8999C182.11 85.2399 181.9 84.6199 181.49 84.1099C181.41 84.0099 181.43 83.8499 181.53 83.7699C181.63 83.6899 181.79 83.7099 181.87 83.8099C182.34 84.4099 182.59 85.1299 182.59 85.8999C182.59 86.6699 182.48 86.1399 182.35 86.1399Z" fill="black"/>
<path d="M179.2 89.3C177.33 89.3 175.8 87.78 175.8 85.9C175.8 84.02 177.32 82.5 179.2 82.5C181.08 82.5 180.59 82.72 181.17 83.13C181.28 83.21 181.3 83.36 181.23 83.47C181.15 83.58 181 83.6 180.89 83.53C180.4 83.18 179.81 82.99 179.2 82.99C177.59 82.99 176.28 84.3 176.28 85.91C176.28 87.52 177.59 88.83 179.2 88.83C180.81 88.83 179.44 88.94 179.44 89.07C179.44 89.2 179.33 89.31 179.2 89.31V89.3Z" fill="black"/>
<path d="M186.58 86.14C186.45 86.14 186.34 86.03 186.34 85.9C186.34 85.23 186.12 84.6 185.7 84.07C185.62 83.97 185.63 83.82 185.74 83.73C185.84 83.65 185.99 83.66 186.08 83.77C186.56 84.37 186.83 85.13 186.83 85.9C186.83 86.67 186.72 86.14 186.59 86.14H186.58Z" fill="black"/>
<path d="M183.43 89.3C181.56 89.3 180.03 87.78 180.03 85.9C180.03 84.02 181.55 82.5 183.43 82.5C185.31 82.5 184.75 82.7 185.31 83.06C185.42 83.13 185.45 83.28 185.38 83.39C185.31 83.5 185.16 83.53 185.05 83.46C184.57 83.14 184.02 82.98 183.44 82.98C181.83 82.98 180.52 84.29 180.52 85.9C180.52 87.51 181.83 88.82 183.44 88.82C185.05 88.82 183.68 88.93 183.68 89.06C183.68 89.19 183.57 89.3 183.44 89.3H183.43Z" fill="black"/>
<path d="M190.81 86.14C190.68 86.14 190.57 86.03 190.57 85.9C190.57 85.23 190.33 84.5699 189.91 84.0499C189.83 83.9499 189.84 83.7999 189.94 83.7099C190.04 83.6299 190.19 83.64 190.28 83.74C190.78 84.35 191.05 85.11 191.05 85.9C191.05 86.6899 190.94 86.14 190.81 86.14Z" fill="black"/>
<path d="M187.66 89.3C185.79 89.3 184.26 87.78 184.26 85.9C184.26 84.02 185.78 82.5 187.66 82.5C189.54 82.5 189.03 82.71 189.6 83.11C189.71 83.19 189.74 83.34 189.66 83.44C189.58 83.55 189.43 83.58 189.33 83.5C188.84 83.16 188.26 82.98 187.66 82.98C186.05 82.98 184.74 84.29 184.74 85.9C184.74 87.51 186.05 88.82 187.66 88.82C189.27 88.82 187.9 88.93 187.9 89.06C187.9 89.19 187.79 89.3 187.66 89.3Z" fill="black"/>
<path d="M195.04 86.14C194.91 86.14 194.8 86.03 194.8 85.9C194.8 85.22 194.56 84.55 194.12 84.03C194.03 83.93 194.05 83.78 194.15 83.69C194.25 83.6 194.4 83.62 194.49 83.72C195 84.33 195.28 85.1 195.28 85.9C195.28 86.7 195.17 86.14 195.04 86.14Z" fill="black"/>
<path d="M191.88 89.3C190.01 89.3 188.48 87.78 188.48 85.9C188.48 84.02 190 82.5 191.88 82.5C193.76 82.5 193.22 82.7 193.78 83.08C193.89 83.15 193.92 83.3 193.84 83.41C193.77 83.52 193.62 83.55 193.51 83.47C193.03 83.14 192.46 82.97 191.88 82.97C190.27 82.97 188.96 84.28 188.96 85.89C188.96 87.5 190.27 88.81 191.88 88.81C193.49 88.81 192.12 88.92 192.12 89.05C192.12 89.18 192.01 89.29 191.88 89.29V89.3Z" fill="black"/>
<path d="M199.27 86.14C199.14 86.14 199.03 86.03 199.03 85.9C199.03 85.23 198.81 84.61 198.4 84.09C198.32 83.99 198.33 83.83 198.44 83.75C198.54 83.67 198.7 83.68 198.78 83.79C199.26 84.4 199.52 85.13 199.52 85.9C199.52 86.67 199.41 86.14 199.28 86.14H199.27Z" fill="black"/>
<path d="M196.11 89.3C194.24 89.3 192.71 87.78 192.71 85.9C192.71 84.02 194.23 82.5 196.11 82.5C197.99 82.5 197.44 82.7 198 83.08C198.11 83.15 198.14 83.3 198.07 83.41C198 83.52 197.85 83.55 197.74 83.48C197.26 83.16 196.7 82.99 196.11 82.99C194.5 82.99 193.19 84.3 193.19 85.91C193.19 87.52 194.5 88.83 196.11 88.83C197.72 88.83 196.35 88.94 196.35 89.07C196.35 89.2 196.24 89.31 196.11 89.31V89.3Z" fill="black"/>
<path d="M203.5 86.1401C203.37 86.1401 203.26 86.0301 203.26 85.9001C203.26 85.2401 203.04 84.6101 202.64 84.1001C202.56 84.0001 202.58 83.8401 202.68 83.7601C202.78 83.6801 202.94 83.7001 203.02 83.8001C203.5 84.4001 203.75 85.1301 203.75 85.9001C203.75 86.6701 203.64 86.1401 203.51 86.1401H203.5Z" fill="black"/>
<path d="M200.34 89.3C198.47 89.3 196.94 87.78 196.94 85.9C196.94 84.02 198.46 82.5 200.34 82.5C202.22 82.5 201.64 82.69 202.2 83.05C202.31 83.12 202.34 83.27 202.27 83.38C202.2 83.49 202.05 83.52 201.94 83.45C201.47 83.14 200.91 82.98 200.35 82.98C198.74 82.98 197.43 84.29 197.43 85.9C197.43 87.51 198.74 88.82 200.35 88.82C201.96 88.82 200.59 88.93 200.59 89.06C200.59 89.19 200.48 89.3 200.35 89.3H200.34Z" fill="black"/>
<path d="M207.73 86.14C207.6 86.14 207.49 86.03 207.49 85.9C207.49 85.23 207.26 84.58 206.83 84.06C206.75 83.96 206.76 83.81 206.86 83.72C206.96 83.64 207.11 83.65 207.2 83.75C207.69 84.35 207.96 85.12 207.96 85.9C207.96 86.68 207.85 86.14 207.72 86.14H207.73Z" fill="black"/>
<path d="M204.57 89.3C202.7 89.3 201.17 87.78 201.17 85.9C201.17 84.02 202.69 82.5 204.57 82.5C206.45 82.5 205.87 82.69 206.42 83.05C206.53 83.12 206.56 83.27 206.49 83.38C206.42 83.49 206.27 83.52 206.16 83.45C205.69 83.14 205.14 82.98 204.57 82.98C202.96 82.98 201.65 84.29 201.65 85.9C201.65 87.51 202.96 88.82 204.57 88.82C206.18 88.82 204.81 88.93 204.81 89.06C204.81 89.19 204.7 89.3 204.57 89.3Z" fill="black"/>
<path d="M208.8 89.3C206.93 89.3 205.4 87.78 205.4 85.9C205.4 84.02 206.92 82.5 208.8 82.5C210.68 82.5 212.2 84.02 212.2 85.9C212.2 87.78 212.09 86.14 211.96 86.14C211.83 86.14 211.72 86.03 211.72 85.9C211.72 84.29 210.41 82.98 208.8 82.98C207.19 82.98 205.88 84.29 205.88 85.9C205.88 87.51 207.19 88.82 208.8 88.82C210.41 88.82 209.04 88.93 209.04 89.06C209.04 89.19 208.93 89.3 208.8 89.3Z" fill="black"/>
<path d="M179.26 89.8699C179.03 89.8699 178.81 89.7699 178.65 89.5999C178.56 89.4999 178.57 89.3499 178.66 89.2599C178.76 89.1699 178.91 89.1799 179 89.2699C179.07 89.3399 179.16 89.3799 179.25 89.3799C179.44 89.3799 179.6 89.2299 179.6 89.0299C179.6 88.8299 179.45 88.6799 179.25 88.6799C179.05 88.6799 179.04 88.7299 178.97 88.8199C178.89 88.9299 178.74 88.9499 178.63 88.8699C178.52 88.7899 178.5 88.6399 178.58 88.5299C178.73 88.3199 178.98 88.1899 179.25 88.1899C179.71 88.1899 180.08 88.5599 180.08 89.0199C180.08 89.4799 179.71 89.8499 179.25 89.8499L179.26 89.8699Z" fill="black"/>
<path d="M183.41 89.8699C183.18 89.8699 182.96 89.7699 182.8 89.5999C182.71 89.4999 182.72 89.3499 182.81 89.2599C182.91 89.1699 183.06 89.1799 183.15 89.2699C183.22 89.3399 183.31 89.3799 183.4 89.3799C183.59 89.3799 183.75 89.2299 183.75 89.0299C183.75 88.8299 183.6 88.6799 183.4 88.6799C183.2 88.6799 183.19 88.7299 183.12 88.8199C183.04 88.9299 182.89 88.9499 182.78 88.8699C182.67 88.7899 182.65 88.6399 182.73 88.5299C182.89 88.3199 183.13 88.1899 183.4 88.1899C183.86 88.1899 184.23 88.5599 184.23 89.0199C184.23 89.4799 183.86 89.8499 183.4 89.8499L183.41 89.8699Z" fill="black"/>
<path d="M187.57 89.8699C187.34 89.8699 187.12 89.7699 186.96 89.5999C186.87 89.4999 186.88 89.3499 186.97 89.2599C187.07 89.1699 187.22 89.1799 187.31 89.2699C187.38 89.3399 187.47 89.3799 187.56 89.3799C187.75 89.3799 187.91 89.2299 187.91 89.0299C187.91 88.8299 187.76 88.6799 187.56 88.6799C187.36 88.6799 187.35 88.7299 187.28 88.8199C187.2 88.9299 187.05 88.9499 186.94 88.8699C186.83 88.7899 186.81 88.6399 186.89 88.5299C187.05 88.3199 187.29 88.1899 187.56 88.1899C188.02 88.1899 188.39 88.5599 188.39 89.0199C188.39 89.4799 188.02 89.8499 187.56 89.8499L187.57 89.8699Z" fill="black"/>
<path d="M191.85 89.8699C191.62 89.8699 191.4 89.7699 191.24 89.5999C191.15 89.4999 191.16 89.3499 191.25 89.2599C191.35 89.1699 191.5 89.1799 191.59 89.2699C191.66 89.3399 191.75 89.3799 191.84 89.3799C192.03 89.3799 192.19 89.2299 192.19 89.0299C192.19 88.8299 192.04 88.6799 191.84 88.6799C191.64 88.6799 191.63 88.7299 191.56 88.8199C191.48 88.9299 191.33 88.9499 191.22 88.8699C191.11 88.7899 191.09 88.6399 191.17 88.5299C191.33 88.3199 191.57 88.1899 191.84 88.1899C192.3 88.1899 192.67 88.5599 192.67 89.0199C192.67 89.4799 192.3 89.8499 191.84 89.8499L191.85 89.8699Z" fill="black"/>
<path d="M196.05 89.8699C195.82 89.8699 195.6 89.7699 195.44 89.5999C195.35 89.4999 195.36 89.3499 195.45 89.2599C195.55 89.1699 195.7 89.1799 195.79 89.2699C195.86 89.3399 195.95 89.3799 196.04 89.3799C196.23 89.3799 196.39 89.2299 196.39 89.0299C196.39 88.8299 196.24 88.6799 196.04 88.6799C195.84 88.6799 195.83 88.7299 195.76 88.8199C195.68 88.9299 195.53 88.9499 195.42 88.8699C195.31 88.7899 195.29 88.6399 195.37 88.5299C195.53 88.3199 195.77 88.1899 196.04 88.1899C196.5 88.1899 196.87 88.5599 196.87 89.0199C196.87 89.4799 196.5 89.8499 196.04 89.8499L196.05 89.8699Z" fill="black"/>
<path d="M200.45 89.8699C200.22 89.8699 200 89.7699 199.84 89.5999C199.75 89.4999 199.76 89.3499 199.85 89.2599C199.95 89.1699 200.1 89.1799 200.19 89.2699C200.26 89.3399 200.35 89.3799 200.44 89.3799C200.63 89.3799 200.79 89.2299 200.79 89.0299C200.79 88.8299 200.64 88.6799 200.44 88.6799C200.24 88.6799 200.23 88.7299 200.16 88.8199C200.08 88.9299 199.93 88.9499 199.82 88.8699C199.71 88.7899 199.69 88.6399 199.77 88.5299C199.93 88.3199 200.17 88.1899 200.44 88.1899C200.9 88.1899 201.27 88.5599 201.27 89.0199C201.27 89.4799 200.9 89.8499 200.44 89.8499L200.45 89.8699Z" fill="black"/>
<path d="M204.6 89.8699C204.37 89.8699 204.15 89.7699 203.99 89.5999C203.9 89.4999 203.91 89.3499 204 89.2599C204.1 89.1699 204.25 89.1799 204.34 89.2699C204.41 89.3399 204.5 89.3799 204.59 89.3799C204.78 89.3799 204.94 89.2299 204.94 89.0299C204.94 88.8299 204.79 88.6799 204.59 88.6799C204.39 88.6799 204.38 88.7299 204.31 88.8199C204.23 88.9299 204.08 88.9499 203.97 88.8699C203.86 88.7899 203.84 88.6399 203.92 88.5299C204.07 88.3199 204.32 88.1899 204.59 88.1899C205.05 88.1899 205.42 88.5599 205.42 89.0199C205.42 89.4799 205.05 89.8499 204.59 89.8499L204.6 89.8699Z" fill="black"/>
<path d="M208.76 89.8699C208.53 89.8699 208.31 89.7699 208.15 89.5999C208.06 89.4999 208.07 89.3499 208.16 89.2599C208.26 89.1699 208.41 89.1799 208.5 89.2699C208.57 89.3399 208.66 89.3799 208.75 89.3799C208.94 89.3799 209.1 89.2299 209.1 89.0299C209.1 88.8299 208.95 88.6799 208.75 88.6799C208.55 88.6799 208.54 88.7299 208.47 88.8199C208.39 88.9299 208.24 88.9499 208.13 88.8699C208.02 88.7899 208 88.6399 208.08 88.5299C208.24 88.3199 208.48 88.1899 208.75 88.1899C209.21 88.1899 209.58 88.5599 209.58 89.0199C209.58 89.4799 209.21 89.8499 208.75 89.8499L208.76 89.8699Z" fill="black"/>
<path d="M49.83 203.55C49.55 203.55 49.27 203.49 49.01 203.35C48.58 203.13 48.25 202.76 48.1 202.29C47.95 201.83 47.99 201.34 48.21 200.9C48.66 200.01 49.76 199.65 50.65 200.1C51.08 200.32 51.41 200.69 51.56 201.16C51.71 201.62 51.67 202.11 51.45 202.55C51.13 203.18 50.49 203.55 49.82 203.55H49.83ZM49.84 200.39C49.35 200.39 48.88 200.66 48.64 201.12C48.31 201.78 48.57 202.58 49.23 202.92C49.89 203.25 50.69 202.99 51.03 202.33C51.36 201.67 51.1 200.87 50.44 200.53C50.25 200.43 50.04 200.39 49.84 200.39Z" fill="black"/>
<path d="M211.36 143.41C211.08 143.41 210.8 143.35 210.54 143.21C209.65 142.76 209.29 141.66 209.74 140.77C210.19 139.88 211.29 139.52 212.18 139.97C213.07 140.42 213.43 141.52 212.98 142.41C212.66 143.04 212.02 143.41 211.35 143.41H211.36ZM211.37 140.25C210.88 140.25 210.41 140.52 210.17 140.98C209.84 141.64 210.1 142.44 210.76 142.78C211.42 143.11 212.22 142.85 212.56 142.19C212.89 141.53 212.63 140.73 211.97 140.39C211.78 140.29 211.57 140.25 211.37 140.25Z" fill="black"/>
<path d="M189.07 71.08C189.02 71.08 188.97 71.07 188.93 71.04L188.18 70.52C188.07 70.44 188.04 70.29 188.12 70.19C188.2 70.08 188.35 70.05 188.45 70.13L189.2 70.65C189.31 70.73 189.34 70.88 189.26 70.98C189.21 71.05 189.14 71.08 189.06 71.08H189.07Z" fill="black"/>
<path d="M191.71 72.92C191.66 72.92 191.61 72.91 191.57 72.88L190.82 72.36C190.71 72.28 190.68 72.13 190.76 72.03C190.84 71.92 190.99 71.89 191.09 71.97L191.84 72.49C191.95 72.57 191.98 72.72 191.9 72.82C191.85 72.89 191.78 72.92 191.7 72.92H191.71Z" fill="black"/>
<path d="M188.85 73.44C188.8 73.44 188.76 73.43 188.71 73.4C188.6 73.32 188.57 73.18 188.65 73.07L189.17 72.31C189.25 72.2 189.4 72.17 189.5 72.25C189.61 72.33 189.64 72.47 189.56 72.58L189.04 73.34C188.99 73.41 188.92 73.44 188.84 73.44H188.85Z" fill="black"/>
<path d="M190.67 70.8C190.62 70.8 190.58 70.79 190.53 70.76C190.42 70.68 190.39 70.54 190.47 70.43L190.99 69.67C191.07 69.56 191.22 69.53 191.32 69.61C191.43 69.69 191.46 69.83 191.38 69.94L190.86 70.7C190.81 70.77 190.74 70.8 190.66 70.8H190.67Z" fill="black"/>
<path d="M41.94 191.79C41.81 191.79 41.7 191.67 41.71 191.54L41.75 190.27C41.75 190.14 41.87 190.03 42 190.04C42.13 190.04 42.24 190.16 42.23 190.29L42.19 191.56C42.19 191.69 42.08 191.79 41.95 191.79H41.94Z" fill="black"/>
<path d="M41.79 196.23C41.66 196.23 41.55 196.11 41.56 195.98L41.6 194.71C41.6 194.58 41.71 194.47 41.85 194.48C41.98 194.48 42.09 194.6 42.08 194.73L42.04 196C42.04 196.13 41.93 196.23 41.8 196.23H41.79Z" fill="black"/>
<path d="M40.3 193.33L39.03 193.29C38.9 193.29 38.79 193.18 38.8 193.04C38.8 192.91 38.91 192.8 39.05 192.81L40.32 192.85C40.45 192.85 40.56 192.96 40.55 193.1C40.55 193.23 40.44 193.33 40.31 193.33H40.3Z" fill="black"/>
<path d="M44.74 193.46L43.47 193.42C43.34 193.42 43.23 193.31 43.24 193.17C43.24 193.04 43.36 192.94 43.49 192.94L44.76 192.98C44.89 192.98 45 193.09 44.99 193.23C44.99 193.36 44.88 193.46 44.75 193.46H44.74Z" fill="black"/>
<path d="M188.6 64.91C188.53 64.91 188.47 64.88 188.42 64.83C181.97 57.68 174.16 51.62 165.2 46.82C165.08 46.76 165.04 46.61 165.1 46.49C165.16 46.37 165.31 46.33 165.43 46.39C174.44 51.22 182.3 57.31 188.78 64.5C188.87 64.6 188.86 64.75 188.76 64.84C188.71 64.88 188.66 64.9 188.6 64.9V64.91Z" fill="black"/>
<path d="M180.05 62.9C179.99 62.9 179.93 62.88 179.88 62.83C171.53 54.49 161.24 48.06 149.31 43.73C149.19 43.68 149.12 43.55 149.17 43.42C149.22 43.29 149.35 43.23 149.48 43.28C161.48 47.63 171.83 54.1 180.23 62.49C180.32 62.58 180.32 62.74 180.23 62.83C180.18 62.88 180.12 62.9 180.06 62.9H180.05Z" fill="black"/>
<path d="M56.45 80.09C56.29 80.09 56.13 80.07 55.97 80.01C55.57 79.88 55.25 79.6 55.06 79.23C54.87 78.86 54.84 78.43 54.97 78.03C55.24 77.21 56.12 76.75 56.95 77.02C57.35 77.15 57.67 77.43 57.86 77.8C58.05 78.17 58.08 78.6 57.95 79C57.74 79.66 57.12 80.08 56.46 80.08L56.45 80.09ZM56.45 77.43C55.99 77.43 55.56 77.72 55.41 78.18C55.32 78.46 55.34 78.75 55.48 79.01C55.61 79.27 55.84 79.46 56.11 79.55C56.68 79.74 57.3 79.42 57.48 78.85C57.57 78.57 57.55 78.28 57.41 78.02C57.28 77.76 57.05 77.57 56.78 77.48C56.67 77.44 56.56 77.43 56.44 77.43H56.45Z" fill="black"/>
<path d="M60.66 73.5001C60.61 73.5001 60.56 73.4801 60.52 73.4501C60.41 73.3701 60.39 73.2201 60.47 73.1101C68.1 62.8701 76.06 56.9901 81.39 53.8701C87.18 50.4801 91.22 49.5001 91.26 49.4901C91.39 49.4601 91.52 49.5401 91.55 49.6701C91.58 49.8001 91.5 49.9301 91.37 49.9601C91.21 50.0001 75.35 53.9501 60.85 73.4001C60.8 73.4601 60.73 73.5001 60.66 73.5001Z" fill="black"/>
<path d="M65.2 61.36C65.14 61.36 65.08 61.34 65.03 61.2901C64.94 61.2001 64.93 61.04 65.03 60.95C80.18 45.58 94.32 43.47 94.46 43.45C94.59 43.43 94.71 43.52 94.73 43.65C94.75 43.78 94.66 43.9 94.53 43.92C94.39 43.94 80.4 46.03 65.37 61.28C65.32 61.33 65.26 61.35 65.2 61.35V61.36Z" fill="black"/>
<path d="M94.76 50.46C94.74 50.46 94.72 50.46 94.7 50.46C94.62 50.44 94.55 50.38 94.53 50.3L93.44 47.13C93.41 47.05 93.43 46.96 93.48 46.9C93.53 46.84 93.62 46.8 93.7 46.81C95.23 47 97.61 47.17 97.64 47.17C97.73 47.17 97.82 47.24 97.85 47.33C97.88 47.42 97.86 47.52 97.79 47.58L94.93 50.38C94.88 50.42 94.82 50.45 94.76 50.45V50.46ZM94.02 47.33L94.86 49.78L97.07 47.61C96.36 47.56 95.07 47.45 94.02 47.33Z" fill="black"/>
<path d="M124.5 94V96.9972C124.5 97.5442 124.057 98 123.5 98C122.955 98 122.5 97.5556 122.5 96.9972V94" fill="white"/>
<path d="M124.5 94V96.9972C124.5 97.5442 124.057 98 123.5 98C122.955 98 122.5 97.5556 122.5 96.9972V94" stroke="black" stroke-width="0.3" stroke-miterlimit="10"/>
<path d="M123.5 96.3C123.776 96.3 124 96.0762 124 95.8001C124 95.5239 123.776 95.3 123.5 95.3C123.224 95.3 123 95.5239 123 95.8001C123 96.0762 123.224 96.3 123.5 96.3Z" fill="black"/>
</svg>
